<?xml version="1.0" encoding="UTF-8" standalone="no"?>
<svg
   xmlns:dc="http://purl.org/dc/elements/1.1/"
   xmlns:cc="http://creativecommons.org/ns#"
   xmlns:rdf="http://www.w3.org/1999/02/22-rdf-syntax-ns#"
   xmlns:svg="http://www.w3.org/2000/svg"
   xmlns="http://www.w3.org/2000/svg"
   height="200"
   width="300"
   id="svg8"
   version="1.1"
   viewBox="0 0 300 200">
  <metadata
     id="metadata14">
    <rdf:RDF>
      <cc:Work
         rdf:about="">
        <dc:format>image/svg+xml</dc:format>
        <dc:type
           rdf:resource="http://purl.org/dc/dcmitype/StillImage" />
        <dc:title></dc:title>
      </cc:Work>
    </rdf:RDF>
  </metadata>
  <defs
     id="defs12" />
  <path
     d="m 198.09218,114.53089 c -6.66417,-0.0956 -61.209,-3.46631 -62.63863,-15.227418 0.12685,-6.716347 11.266,-13.561854 20.92776,-15.492099 0.85715,-8.01646 2.04024,-10.728213 2.75682,-16.027003 -34.77859,4.645753 -52.67796,16.347054 -52.97215,31.858912 -0.30313,15.972598 25.55384,29.971188 61.77226,35.468358 2.26681,0.35652 4.50658,0.65367 6.7526,0.92313 7.31783,0.89016 14.98766,1.43744 22.89751,1.56973 6.9458,0.008 13.47446,-0.0842 19.57701,-0.52714 41.685,-2.82177 73.1623,-16.88811 73.49329,-34.34788 0.14255,-7.53277 -3.18888,-14.441173 -13.02566,-20.412616 l 9.3e-4,1.91e-4 c -10.36158,-6.289851 -17.2637,-9.742786 -35.04372,-13.215245 1.80022,6.574833 2.3939,10.590292 3.61478,17.125524 2.06742,0.896717 0,0 0,0 v 0 c 9.11996,3.707072 15.47533,5.162534 15.1336,15.178656 -1.8155,11.795 -52.97955,12.53372 -60.07517,12.95364 m 32.61596,27.30408 c -11.28705,1.70674 -23.56295,2.52717 -36.39985,2.31224 -12.60959,-0.21131 -24.63824,-1.40587 -35.68905,-3.42349 8.995,9.44995 21.62919,15.42688 35.71111,15.66228 14.13326,0.23679 27.02089,-5.34906 36.37767,-14.55149 z"
     id="path4"
     style="fill:#000000;fill-opacity:1;stroke-width:1.00000012" />
  <path
     d="m 168.05252,101.86944 a 34.157322,75.476059 0 0 1 15.40239,-71.10918 34.157322,75.476059 0 0 1 35.66555,-2.004925 34.157322,75.476059 0 0 1 17.01881,69.286632"
     transform="matrix(0.99976315,0.02176326,-0.00660048,0.99997822,0,0)"
     id="path850"
     style="opacity:1;fill:#784421;fill-opacity:0;stroke:#000000;stroke-width:14.90085697;stroke-linejoin:round;stroke-miterlimit:4;stroke-dasharray:none;stroke-opacity:1;paint-order:markers fill stroke" />
  <path
     d="m 248.69932,145.56631 6.10317,-1.99229 10.26801,31.45481 -6.10318,1.99231 z m -104.47374,-2.24569 6.07315,2.08202 -10.73034,31.30013 -6.07316,-2.082 z"
     style="opacity:1;fill:#784421;fill-opacity:0;stroke:#000000;stroke-width:11.5;stroke-linejoin:round;stroke-miterlimit:4;stroke-dasharray:none;stroke-opacity:1;paint-order:markers fill stroke"
     id="rect833-7" />
  <path
     style="fill:#000000;stroke:#000000;stroke-width:0.71864682px;stroke-linecap:butt;stroke-linejoin:miter;stroke-opacity:1"
     d="M 61.141226,58.79318 43.372545,58.93225 V 87.63337 H 14.814778 v 17.94454 H 43.372545 V 134.4181 H 61.141226 V 105.57791 H 89.698992 L 89.560794,87.63337 H 61.141226 Z"
     id="path815" />
</svg>
