<?xml version="1.0" encoding="UTF-8" standalone="no"?>
<!-- Created with Inkscape (http://www.inkscape.org/) -->

<svg
   xmlns:dc="http://purl.org/dc/elements/1.1/"
   xmlns:cc="http://creativecommons.org/ns#"
   xmlns:rdf="http://www.w3.org/1999/02/22-rdf-syntax-ns#"
   xmlns:svg="http://www.w3.org/2000/svg"
   xmlns="http://www.w3.org/2000/svg"
   xmlns:sodipodi="http://sodipodi.sourceforge.net/DTD/sodipodi-0.dtd"
   xmlns:inkscape="http://www.inkscape.org/namespaces/inkscape"
   width="512"
   height="512"
   viewBox="0 0 512.00001 512.00001"
   id="svg4167"
   version="1.1"
   inkscape:version="0.92.2 (5c3e80d, 2017-08-06)"
   sodipodi:docname="neck.svg"
   inkscape:export-filename="C:\Users\Lucas\Desktop\temp\icons\game-icons.net\game-icons.net.svg-bt\necklace.png"
   inkscape:export-xdpi="11.25"
   inkscape:export-ydpi="11.25">
  <defs
     id="defs4169" />
  <sodipodi:namedview
     id="base"
     pagecolor="#ffffff"
     bordercolor="#666666"
     borderopacity="1.0"
     inkscape:pageopacity="0.0"
     inkscape:pageshadow="2"
     inkscape:zoom="1.75"
     inkscape:cx="254.5127"
     inkscape:cy="317.16604"
     inkscape:document-units="px"
     inkscape:current-layer="layer1"
     showgrid="false"
     inkscape:window-width="997"
     inkscape:window-height="689"
     inkscape:window-x="208"
     inkscape:window-y="78"
     inkscape:window-maximized="0"
     units="px" />
  <metadata
     id="metadata4172">
    <rdf:RDF>
      <cc:Work
         rdf:about="">
        <dc:format>image/svg+xml</dc:format>
        <dc:type
           rdf:resource="http://purl.org/dc/dcmitype/StillImage" />
        <dc:title />
      </cc:Work>
    </rdf:RDF>
  </metadata>
  <g
     inkscape:label="Layer 1"
     inkscape:groupmode="layer"
     id="layer1"
     transform="translate(0,-540.36214)">
    <path
       style="fill:#000000;fill-opacity:1;stroke:none;stroke-width:0.97076309;stroke-opacity:1"
       d="m 247.5493,585.65637 c -80.05463,-2.8e-4 -146.96096,1.377 -146.95898,71.89844 3.17481,43.64032 27.86448,72.31 47.54492,108.86914 33.32257,61.55405 32.5619,72.49281 49.5,108.06446 1.2021,2.52451 2.97018,4.90568 3.95906,7.76363 6.68951,-7.21931 12.52077,-11.68249 21.89356,-16.85072 l -38.30017,-75.93775 c -33.42132,-51.88382 -59.36068,-81.61854 -68.90597,-117.79548 -0.14154,-72.71628 27.47256,-68.63018 129.15932,-68.09375 105.16135,0.55485 145.78954,-7.02257 133.5106,69.1543 -25.6198,55.31818 -34.30104,59.7109 -67.17745,118.68974 l -37.74697,73.43536 c 10.93173,5.60943 14.64183,8.47859 22.94591,15.16201 0.71063,-1.61155 1.68764,-3.0932 2.21289,-4.67383 12.57388,-37.83811 22.04394,-58.26858 53.63672,-116.62695 21.51183,-36.0067 36.71781,-62.95304 41.68554,-101.16016 0.002,-70.52119 -66.90407,-71.89872 -146.95898,-71.89844 z"
       id="path4194-5"
       inkscape:connector-curvature="0"
       sodipodi:nodetypes="ccccccccscccccccc" />
    <circle
       id="path3700"
       cx="249.77827"
       cy="933.69818"
       r="57.425743" />
  </g>
</svg>
